<svg width="189" height="19" viewBox="0 0 189 19" fill="none" xmlns="http://www.w3.org/2000/svg">
<path d="M8.922 18.22C7.734 18.22 6.61933 17.9927 5.578 17.538C4.55133 17.0833 3.642 16.4527 2.85 15.646C2.07267 14.8247 1.464 13.886 1.024 12.83C0.584 11.7593 0.364 10.6153 0.364 9.398C0.364 8.19533 0.576667 7.066 1.002 6.01C1.442 4.93933 2.05067 4.00067 2.828 3.194C3.62 2.38733 4.52933 1.75667 5.556 1.302C6.59733 0.832666 7.71933 0.598 8.922 0.598C9.978 0.598 10.9387 0.752 11.804 1.06C12.6693 1.368 13.5053 1.85933 14.312 2.534C14.444 2.63667 14.5173 2.76133 14.532 2.908C14.5613 3.04 14.5467 3.172 14.488 3.304C14.4293 3.42133 14.3413 3.50933 14.224 3.568C14.1947 3.68533 14.1213 3.77333 14.004 3.832C13.8867 3.89067 13.7473 3.91267 13.586 3.898C13.4393 3.88333 13.2927 3.81733 13.146 3.7C12.574 3.20133 11.9507 2.83467 11.276 2.6C10.6013 2.35067 9.81667 2.226 8.922 2.226C7.96867 2.226 7.074 2.41667 6.238 2.798C5.41667 3.17933 4.69067 3.7 4.06 4.36C3.42933 5.02 2.93067 5.78267 2.564 6.648C2.212 7.51333 2.036 8.43 2.036 9.398C2.036 10.3953 2.212 11.3267 2.564 12.192C2.93067 13.0573 3.42933 13.82 4.06 14.48C4.69067 15.14 5.41667 15.6607 6.238 16.042C7.074 16.4087 7.96867 16.592 8.922 16.592C9.72867 16.592 10.4913 16.46 11.21 16.196C11.9287 15.932 12.6107 15.5507 13.256 15.052C13.432 14.9053 13.6153 14.8467 13.806 14.876C14.0113 14.9053 14.1873 14.9933 14.334 15.14C14.4807 15.2867 14.554 15.4773 14.554 15.712C14.554 15.8293 14.5393 15.9393 14.51 16.042C14.4807 16.13 14.4147 16.2253 14.312 16.328C13.564 17.0173 12.728 17.5087 11.804 17.802C10.88 18.0807 9.91933 18.22 8.922 18.22ZM14.554 15.712L12.882 15.36V10.938H9.45C9.20067 10.938 8.99533 10.8647 8.834 10.718C8.67267 10.5713 8.592 10.388 8.592 10.168C8.592 9.948 8.67267 9.772 8.834 9.64C8.99533 9.49333 9.20067 9.42 9.45 9.42H13.696C13.9453 9.42 14.1507 9.50067 14.312 9.662C14.4733 9.80867 14.554 10.0067 14.554 10.256V15.712ZM18.9447 18C18.6954 18 18.4901 17.9193 18.3287 17.758C18.1674 17.5967 18.0867 17.3913 18.0867 17.142V1.676C18.0867 1.42667 18.1674 1.22133 18.3287 1.06C18.4901 0.898666 18.6954 0.818 18.9447 0.818C19.1941 0.818 19.3994 0.898666 19.5607 1.06C19.7221 1.22133 19.8027 1.42667 19.8027 1.676V17.142C19.8027 17.3913 19.7221 17.5967 19.5607 17.758C19.3994 17.9193 19.1941 18 18.9447 18ZM25.0678 18C24.8184 18 24.6131 17.9193 24.4518 17.758C24.2904 17.5967 24.2098 17.3913 24.2098 17.142V1.676C24.2098 1.42667 24.2904 1.22133 24.4518 1.06C24.6131 0.898666 24.8184 0.818 25.0678 0.818H29.1818C30.2524 0.818 31.2058 1.04533 32.0418 1.5C32.8778 1.94 33.5304 2.56333 33.9998 3.37C34.4838 4.162 34.7258 5.07867 34.7258 6.12C34.7258 7.11733 34.4838 8.00467 33.9998 8.782C33.5304 9.55933 32.8778 10.168 32.0418 10.608C31.2058 11.048 30.2524 11.268 29.1818 11.268H25.9258V17.142C25.9258 17.3913 25.8451 17.5967 25.6838 17.758C25.5224 17.9193 25.3171 18 25.0678 18ZM34.2638 18C34.0731 18 33.9191 17.9633 33.8018 17.89C33.6991 17.8167 33.6038 17.7067 33.5158 17.56L29.2918 10.828L31.0078 10.388L34.9458 16.68C35.1658 17.032 35.2024 17.34 35.0558 17.604C34.9238 17.868 34.6598 18 34.2638 18ZM25.9258 9.618H29.1818C29.9298 9.618 30.5898 9.47133 31.1618 9.178C31.7484 8.87 32.2104 8.452 32.5478 7.924C32.8851 7.396 33.0538 6.79467 33.0538 6.12C33.0538 5.40133 32.8851 4.77067 32.5478 4.228C32.2104 3.67067 31.7484 3.238 31.1618 2.93C30.5898 2.622 29.9298 2.468 29.1818 2.468H25.9258V9.618ZM38.6674 18C38.4327 18 38.2274 17.9193 38.0514 17.758C37.89 17.5967 37.8094 17.3913 37.8094 17.142V1.676C37.8094 1.44133 37.89 1.24333 38.0514 1.082C38.2274 0.905999 38.4327 0.818 38.6674 0.818C38.902 0.818 39.1 0.905999 39.2614 1.082C39.4374 1.24333 39.5254 1.44133 39.5254 1.676V16.372H48.1274C48.362 16.372 48.56 16.4527 48.7214 16.614C48.8974 16.7607 48.9854 16.9513 48.9854 17.186C48.9854 17.4207 48.8974 17.6187 48.7214 17.78C48.56 17.9267 48.362 18 48.1274 18H38.6674ZM57.0113 18.22C56.0726 18.22 55.1999 18.088 54.3933 17.824C53.6013 17.5453 52.9119 17.1567 52.3253 16.658C51.7386 16.1593 51.2913 15.58 50.9832 14.92C50.8659 14.6853 50.8586 14.4727 50.9613 14.282C51.0786 14.0767 51.2693 13.9373 51.5333 13.864C51.7386 13.8053 51.9366 13.8273 52.1273 13.93C52.3326 14.0327 52.4866 14.1867 52.5893 14.392C52.8093 14.8173 53.1319 15.1987 53.5573 15.536C53.9826 15.8733 54.4886 16.1373 55.0753 16.328C55.6619 16.504 56.3073 16.592 57.0113 16.592C57.7886 16.592 58.4779 16.4673 59.0793 16.218C59.6806 15.954 60.1499 15.58 60.4873 15.096C60.8393 14.5973 61.0153 13.996 61.0153 13.292C61.0153 12.3973 60.6853 11.6273 60.0253 10.982C59.3653 10.3367 58.3313 9.926 56.9233 9.75C55.2073 9.54467 53.8653 9.01667 52.8973 8.166C51.9293 7.30067 51.4453 6.24467 51.4453 4.998C51.4453 4.10333 51.6799 3.326 52.1493 2.666C52.6333 2.006 53.2933 1.5 54.1293 1.148C54.9653 0.781333 55.9259 0.598 57.0113 0.598C57.8179 0.598 58.5513 0.729999 59.2113 0.993999C59.8713 1.24333 60.4433 1.58067 60.9273 2.006C61.4259 2.41667 61.8293 2.87133 62.1373 3.37C62.2839 3.60467 62.3279 3.832 62.2693 4.052C62.2253 4.272 62.1006 4.44067 61.8953 4.558C61.6753 4.66067 61.4479 4.67533 61.2133 4.602C60.9933 4.52867 60.8246 4.38933 60.7073 4.184C60.4873 3.84667 60.2086 3.53133 59.8713 3.238C59.5486 2.93 59.1526 2.688 58.6833 2.512C58.2139 2.336 57.6493 2.24067 56.9893 2.226C55.8306 2.226 54.8993 2.47533 54.1953 2.974C53.4913 3.458 53.1393 4.16933 53.1393 5.108C53.1393 5.60667 53.2713 6.06867 53.5353 6.494C53.7993 6.90467 54.2319 7.264 54.8333 7.572C55.4493 7.86533 56.2706 8.08533 57.2973 8.232C59.1306 8.496 60.4873 9.06067 61.3673 9.926C62.2619 10.7767 62.7093 11.8913 62.7093 13.27C62.7093 14.062 62.5626 14.766 62.2693 15.382C61.9906 15.998 61.5873 16.5187 61.0593 16.944C60.5459 17.3547 59.9373 17.67 59.2333 17.89C58.5439 18.11 57.8033 18.22 57.0113 18.22ZM73.601 18C73.3516 18 73.1463 17.9193 72.985 17.758C72.8236 17.5967 72.743 17.3913 72.743 17.142V1.676C72.743 1.42667 72.8236 1.22133 72.985 1.06C73.1463 0.898666 73.3516 0.818 73.601 0.818C73.8503 0.818 74.0556 0.898666 74.217 1.06C74.3783 1.22133 74.459 1.42667 74.459 1.676V17.142C74.459 17.3913 74.3783 17.5967 74.217 17.758C74.0556 17.9193 73.8503 18 73.601 18ZM79.724 18C79.4747 18 79.2693 17.9193 79.108 17.758C78.9467 17.5967 78.866 17.3913 78.866 17.142V1.676C78.866 1.42667 78.9467 1.22133 79.108 1.06C79.2693 0.898666 79.4747 0.818 79.724 0.818C79.988 0.818 80.208 0.920666 80.384 1.126L90.9 14.942V1.676C90.9 1.42667 90.9807 1.22133 91.142 1.06C91.3033 0.898666 91.5087 0.818 91.758 0.818C91.9927 0.818 92.1907 0.898666 92.352 1.06C92.528 1.22133 92.616 1.42667 92.616 1.676V17.142C92.616 17.3913 92.528 17.5967 92.352 17.758C92.1907 17.9193 91.9927 18 91.758 18C91.6407 18 91.5233 17.978 91.406 17.934C91.2887 17.89 91.1933 17.8167 91.12 17.714L80.582 3.898V17.142C80.582 17.3913 80.494 17.5967 80.318 17.758C80.1567 17.9193 79.9587 18 79.724 18ZM104.324 18C104.074 18 103.869 17.9193 103.708 17.758C103.546 17.5967 103.466 17.3913 103.466 17.142V1.676C103.466 1.42667 103.546 1.22133 103.708 1.06C103.869 0.898666 104.074 0.818 104.324 0.818H108.284C109.545 0.818 110.696 1.03067 111.738 1.456C112.794 1.86667 113.703 2.46067 114.466 3.238C115.228 4.00067 115.815 4.90267 116.226 5.944C116.651 6.98533 116.864 8.13667 116.864 9.398C116.864 10.6593 116.651 11.818 116.226 12.874C115.815 13.9153 115.228 14.8247 114.466 15.602C113.703 16.3647 112.794 16.9587 111.738 17.384C110.696 17.7947 109.545 18 108.284 18H104.324ZM105.182 16.46H108.284C109.633 16.46 110.821 16.1593 111.848 15.558C112.889 14.942 113.703 14.106 114.29 13.05C114.876 11.9793 115.17 10.762 115.17 9.398C115.17 8.034 114.876 6.824 114.29 5.768C113.703 4.69733 112.889 3.86133 111.848 3.26C110.821 2.65867 109.633 2.358 108.284 2.358H105.182V16.46ZM121.253 18C121.004 18 120.799 17.9193 120.637 17.758C120.476 17.5967 120.395 17.3913 120.395 17.142V1.676C120.395 1.42667 120.476 1.22133 120.637 1.06C120.799 0.898666 121.004 0.818 121.253 0.818C121.503 0.818 121.708 0.898666 121.869 1.06C122.031 1.22133 122.111 1.42667 122.111 1.676V17.142C122.111 17.3913 122.031 17.5967 121.869 17.758C121.708 17.9193 121.503 18 121.253 18ZM134.24 18.22C133.052 18.22 131.938 17.9927 130.896 17.538C129.87 17.0833 128.96 16.4527 128.168 15.646C127.391 14.8247 126.782 13.886 126.342 12.83C125.902 11.7593 125.682 10.6153 125.682 9.398C125.682 8.19533 125.895 7.066 126.32 6.01C126.76 4.93933 127.369 4.00067 128.146 3.194C128.938 2.38733 129.848 1.75667 130.874 1.302C131.916 0.832666 133.038 0.598 134.24 0.598C135.296 0.598 136.257 0.752 137.122 1.06C137.988 1.368 138.824 1.85933 139.63 2.534C139.762 2.63667 139.836 2.76133 139.85 2.908C139.88 3.04 139.865 3.172 139.806 3.304C139.748 3.42133 139.66 3.50933 139.542 3.568C139.513 3.68533 139.44 3.77333 139.322 3.832C139.205 3.89067 139.066 3.91267 138.904 3.898C138.758 3.88333 138.611 3.81733 138.464 3.7C137.892 3.20133 137.269 2.83467 136.594 2.6C135.92 2.35067 135.135 2.226 134.24 2.226C133.287 2.226 132.392 2.41667 131.556 2.798C130.735 3.17933 130.009 3.7 129.378 4.36C128.748 5.02 128.249 5.78267 127.882 6.648C127.53 7.51333 127.354 8.43 127.354 9.398C127.354 10.3953 127.53 11.3267 127.882 12.192C128.249 13.0573 128.748 13.82 129.378 14.48C130.009 15.14 130.735 15.6607 131.556 16.042C132.392 16.4087 133.287 16.592 134.24 16.592C135.047 16.592 135.81 16.46 136.528 16.196C137.247 15.932 137.929 15.5507 138.574 15.052C138.75 14.9053 138.934 14.8467 139.124 14.876C139.33 14.9053 139.506 14.9933 139.652 15.14C139.799 15.2867 139.872 15.4773 139.872 15.712C139.872 15.8293 139.858 15.9393 139.828 16.042C139.799 16.13 139.733 16.2253 139.63 16.328C138.882 17.0173 138.046 17.5087 137.122 17.802C136.198 18.0807 135.238 18.22 134.24 18.22ZM139.872 15.712L138.2 15.36V10.938H134.768C134.519 10.938 134.314 10.8647 134.152 10.718C133.991 10.5713 133.91 10.388 133.91 10.168C133.91 9.948 133.991 9.772 134.152 9.64C134.314 9.49333 134.519 9.42 134.768 9.42H139.014C139.264 9.42 139.469 9.50067 139.63 9.662C139.792 9.80867 139.872 10.0067 139.872 10.256V15.712ZM144.263 18C144.014 18 143.808 17.9193 143.647 17.758C143.486 17.5967 143.405 17.3913 143.405 17.142V1.676C143.405 1.42667 143.486 1.22133 143.647 1.06C143.808 0.898666 144.014 0.818 144.263 0.818C144.512 0.818 144.718 0.898666 144.879 1.06C145.04 1.22133 145.121 1.42667 145.121 1.676V17.142C145.121 17.3913 145.04 17.5967 144.879 17.758C144.718 17.9193 144.512 18 144.263 18ZM154.522 18C154.287 18 154.082 17.9193 153.906 17.758C153.745 17.582 153.664 17.3767 153.664 17.142V0.818H155.38V17.142C155.38 17.3767 155.299 17.582 155.138 17.758C154.977 17.9193 154.771 18 154.522 18ZM148.45 2.38C148.215 2.38 148.025 2.30667 147.878 2.16C147.731 2.01333 147.658 1.83 147.658 1.61C147.658 1.37533 147.731 1.18467 147.878 1.038C148.025 0.891333 148.215 0.818 148.45 0.818H160.616C160.851 0.818 161.041 0.891333 161.188 1.038C161.335 1.18467 161.408 1.37533 161.408 1.61C161.408 1.83 161.335 2.01333 161.188 2.16C161.041 2.30667 160.851 2.38 160.616 2.38H148.45ZM161.236 18C160.899 18 160.657 17.8607 160.51 17.582C160.364 17.3033 160.349 17.032 160.466 16.768L166.934 1.412C167.096 1.016 167.374 0.818 167.77 0.818C168.152 0.818 168.423 1.016 168.584 1.412L175.074 16.79C175.206 17.0687 175.184 17.34 175.008 17.604C174.847 17.868 174.612 18 174.304 18C174.128 18 173.967 17.956 173.82 17.868C173.688 17.78 173.578 17.648 173.49 17.472L167.44 2.798H168.122L162.028 17.472C161.955 17.648 161.845 17.78 161.698 17.868C161.566 17.956 161.412 18 161.236 18ZM162.688 13.908L163.348 12.434H172.28L172.94 13.908H162.688ZM178.509 18C178.275 18 178.069 17.9193 177.893 17.758C177.732 17.5967 177.651 17.3913 177.651 17.142V1.676C177.651 1.44133 177.732 1.24333 177.893 1.082C178.069 0.905999 178.275 0.818 178.509 0.818C178.744 0.818 178.942 0.905999 179.103 1.082C179.279 1.24333 179.367 1.44133 179.367 1.676V16.372H187.969C188.204 16.372 188.402 16.4527 188.563 16.614C188.739 16.7607 188.827 16.9513 188.827 17.186C188.827 17.4207 188.739 17.6187 188.563 17.78C188.402 17.9267 188.204 18 187.969 18H178.509Z" fill="white"/>
</svg>
